<?xml version="1.0" standalone="no"?>
<!DOCTYPE svg PUBLIC "-//W3C//DTD SVG 20010904//EN"
 "http://www.w3.org/TR/2001/REC-SVG-20010904/DTD/svg10.dtd">
<svg version="1.0" xmlns="http://www.w3.org/2000/svg"
 width="509.000000pt" height="521.000000pt" viewBox="0 0 509.000000 521.000000"
 preserveAspectRatio="xMidYMid meet">

<g transform="translate(0.000000,521.000000) scale(0.100000,-0.100000)"
fill="#000000" stroke="none">
<path d="M2305 4719 c-116 -39 -297 -136 -383 -205 -69 -55 -127 -125 -219
-269 -79 -123 -110 -248 -118 -475 -7 -197 -1 -228 71 -358 l35 -65 -20 -26
c-30 -36 -73 -129 -161 -347 -52 -129 -65 -151 -144 -248 -95 -116 -181 -243
-225 -333 -41 -81 -151 -340 -151 -353 0 -6 -6 -13 -14 -16 -8 -3 -12 -12 -9
-20 3 -9 -5 -18 -22 -24 -27 -10 -27 -11 -9 -26 14 -11 15 -17 7 -20 -10 -4
-10 -10 2 -26 10 -16 11 -26 4 -41 -8 -14 -8 -18 0 -13 6 4 11 0 11 -8 0 -8 6
-13 13 -10 7 2 20 -8 29 -23 32 -54 126 -148 182 -183 l57 -35 -5 -45 c-20
-168 -27 -300 -21 -410 3 -69 10 -128 14 -133 4 -4 8 82 9 190 2 184 15 316
45 482 12 64 13 65 47 69 19 2 43 11 54 20 24 23 48 70 41 82 -3 6 -2 10 3 10
14 0 7 61 -10 95 -20 38 -54 69 -66 61 -6 -3 -4 20 4 51 8 32 23 103 34 158
11 55 26 122 35 149 18 58 19 79 4 74 -14 -5 -45 -103 -60 -188 -6 -36 -20
-100 -31 -142 l-20 -78 -52 -2 c-54 -2 -70 -2 -176 6 -56 4 -65 7 -62 23 5 32
25 76 67 148 22 39 57 108 78 155 52 117 153 269 250 375 40 44 62 80 80 130
23 64 107 276 145 369 9 21 29 52 45 69 28 30 29 30 40 12 6 -11 12 -22 12
-25 2 -25 81 -137 132 -187 51 -50 63 -67 64 -95 l1 -33 9 33 10 32 36 -15
c20 -9 62 -30 92 -47 118 -65 193 -98 267 -117 43 -11 81 -18 86 -15 18 11 6
-32 -23 -83 -29 -51 -33 -73 -10 -59 5 3 26 35 45 71 20 35 42 67 49 71 7 5 7
1 -2 -10 -11 -13 -11 -20 -3 -28 7 -7 12 -20 12 -30 0 -10 9 -27 20 -38 24
-24 25 -19 5 21 -12 22 -13 34 -5 50 9 16 14 18 26 8 9 -7 11 -16 6 -21 -5 -5
-7 -20 -4 -34 3 -17 7 -22 12 -13 6 8 15 -2 30 -30 12 -24 24 -41 27 -38 3 3
-9 27 -26 52 -31 46 -38 65 -23 65 24 0 78 -91 66 -111 -10 -17 16 -9 36 11
19 19 19 20 -40 76 -33 32 -60 60 -60 64 0 3 15 6 33 7 17 0 40 4 50 8 10 4
23 3 29 -3 15 -15 74 -244 97 -377 99 -561 103 -605 111 -1195 5 -349 11 -535
20 -578 9 -46 9 -67 1 -75 -18 -18 -504 7 -626 33 -55 12 -152 30 -215 41 -98
17 -158 28 -350 64 -54 11 8 -14 86 -34 550 -141 1165 -168 1625 -71 213 44
375 92 424 124 28 19 30 33 15 151 -5 44 -17 136 -26 205 -8 69 -28 186 -45
260 -16 74 -29 140 -29 146 0 7 17 15 37 19 28 5 52 23 102 76 37 38 74 69 84
69 9 0 17 7 17 16 0 9 6 14 14 11 10 -4 13 8 12 51 -1 45 -5 61 -22 74 -15 13
-23 34 -28 76 -16 138 -63 282 -153 462 -48 96 -111 211 -140 256 -68 105
-213 234 -264 234 -9 0 -23 18 -34 43 -10 23 -34 76 -53 117 -20 41 -35 82
-34 91 1 15 78 147 92 159 8 7 50 151 50 173 0 9 5 17 11 17 6 0 8 8 4 20 -3
10 1 40 9 65 31 90 15 410 -26 535 -67 207 -227 415 -379 495 -101 53 -313
114 -434 125 -180 17 -240 13 -340 -21z m455 -30 c172 -35 270 -76 395 -165
73 -52 124 -112 171 -200 19 -36 44 -78 54 -93 22 -30 76 -248 84 -342 4 -43
3 -58 -3 -44 -5 11 -10 35 -10 52 -1 40 -39 162 -58 184 -7 8 -13 24 -13 34 0
23 -89 107 -103 98 -6 -4 -8 2 -4 16 4 17 2 21 -9 17 -8 -3 -31 7 -52 22 -34
25 -50 38 -117 97 -51 45 -66 55 -84 55 -10 0 -24 7 -31 15 -7 8 -16 12 -21 9
-5 -3 -9 -1 -9 4 0 7 -78 32 -120 38 -210 28 -468 -4 -650 -83 -8 -3 -17 -7
-20 -8 -3 -1 -21 -8 -41 -17 -20 -9 -47 -19 -60 -23 -13 -4 -40 -18 -59 -30
-19 -12 -43 -24 -53 -28 -10 -4 -15 -11 -12 -17 3 -5 2 -10 -3 -10 -5 0 -29
-16 -53 -35 -24 -19 -49 -35 -55 -35 -7 0 -14 -8 -17 -18 -2 -11 -17 -22 -35
-25 -18 -4 -38 -18 -48 -32 -20 -30 -10 -47 11 -19 8 10 15 14 15 8 0 -18 -26
-35 -44 -28 -12 5 -16 0 -16 -20 0 -14 -4 -26 -9 -26 -12 0 -27 -84 -23 -123
2 -16 -1 -34 -6 -40 -18 -23 -20 -57 -10 -164 9 -105 11 -120 22 -193 6 -45
16 -70 27 -70 5 0 9 -5 9 -12 0 -28 -52 41 -66 88 -21 73 -21 397 0 476 34
126 112 269 222 404 34 42 156 140 209 167 78 40 224 106 257 116 108 35 268
35 438 0z m60 -623 c41 -22 88 -46 105 -54 38 -20 187 -169 202 -202 6 -14 22
-47 35 -75 20 -45 23 -64 23 -180 -1 -150 -22 -227 -70 -256 -16 -10 -22 -18
-14 -21 13 -4 -8 -51 -41 -92 -24 -30 -86 -56 -133 -56 -39 0 -141 -21 -177
-37 -23 -10 -46 -12 -170 -13 -63 0 -130 4 -147 9 -18 5 -33 7 -33 4 0 -3 -11
2 -25 11 -13 9 -33 16 -43 16 -24 0 -114 39 -125 54 -4 6 -12 18 -17 26 -8 12
-11 12 -18 2 -13 -20 -97 72 -138 152 -45 88 -77 191 -71 225 3 14 1 34 -3 46
-17 44 21 174 65 225 96 110 211 186 340 225 102 31 116 32 260 31 119 -2 121
-2 195 -40z m521 -1068 c24 -51 51 -95 59 -99 93 -43 102 -51 225 -187 53 -60
135 -176 135 -193 0 -4 32 -74 70 -155 39 -81 80 -179 91 -218 11 -39 25 -86
30 -104 6 -18 9 -47 7 -65 -3 -31 -4 -32 -50 -29 -25 2 -70 -3 -100 -10 -29
-8 -63 -13 -75 -12 -15 1 -23 -4 -23 -14 0 -11 -3 -13 -10 -6 -6 6 -24 73 -40
150 -66 308 -136 541 -157 521 -3 -3 4 -36 16 -74 22 -70 123 -496 136 -568 3
-22 9 -51 12 -64 4 -14 2 -22 -4 -18 -13 8 0 -88 16 -106 20 -25 79 -220 91
-304 6 -43 22 -125 35 -183 13 -58 29 -157 35 -220 6 -63 15 -135 21 -159 8
-35 7 -47 -6 -61 -16 -17 -23 -20 -180 -63 -149 -42 -582 -117 -672 -117 l-51
0 -6 42 c-3 24 -10 284 -15 578 -9 549 -11 583 -62 920 -46 309 -112 605 -149
672 -7 13 -5 16 16 13 14 -1 31 3 38 11 9 9 16 10 24 2 6 -6 18 -7 29 -2 10 4
34 8 54 9 19 1 47 10 62 20 27 17 28 17 41 0 13 -18 14 -18 20 1 3 12 30 32
64 47 57 27 57 27 74 7 23 -29 27 -25 21 23 -3 23 -2 39 2 35 4 -4 19 2 33 12
13 11 30 20 37 20 7 0 15 9 18 20 3 11 14 20 24 20 14 0 31 -24 64 -92z"/>
<path d="M2843 3710 c-13 -5 -23 -14 -23 -21 0 -7 7 -8 18 -4 9 4 38 10 65 13
26 2 50 9 53 13 7 12 -84 10 -113 -1z"/>
<path d="M2240 3688 c-64 -18 -55 -27 21 -22 87 7 102 10 94 24 -8 12 -68 12
-115 -2z"/>
<path d="M2655 3210 c-15 -6 -8 -9 28 -9 30 -1 46 3 42 9 -7 12 -42 12 -70 0z"/>
<path d="M2482 2755 c0 -16 2 -22 5 -12 2 9 2 23 0 30 -3 6 -5 -1 -5 -18z"/>
<path d="M2571 2724 c0 -11 3 -14 6 -6 3 7 2 16 -1 19 -3 4 -6 -2 -5 -13z"/>
<path d="M2522 2715 c0 -11 3 -29 8 -40 11 -25 11 1 0 35 -6 20 -8 21 -8 5z"/>
<path d="M2550 2706 c0 -8 4 -17 9 -20 5 -4 7 3 4 14 -6 23 -13 26 -13 6z"/>
<path d="M2454 2701 c4 -5 2 -11 -4 -13 -5 -2 -6 -9 -1 -17 5 -7 14 -10 20 -7
17 11 13 46 -5 46 -8 0 -13 -4 -10 -9z"/>
<path d="M2491 2694 c0 -11 3 -14 6 -6 3 7 2 16 -1 19 -3 4 -6 -2 -5 -13z"/>
<path d="M2578 2680 c-7 -24 -3 -38 8 -28 3 4 4 17 2 30 l-3 23 -7 -25z"/>
<path d="M2409 2651 c11 -16 55 -55 96 -86 48 -37 75 -65 75 -77 0 -14 5 -18
16 -14 9 3 20 6 25 6 5 0 7 11 4 23 -5 17 5 45 30 90 51 93 39 106 -15 16 -24
-41 -45 -75 -46 -77 -4 -6 -82 54 -135 102 -57 52 -80 60 -50 17z"/>
<path d="M2510 2621 c0 -5 5 -13 10 -16 6 -3 10 -2 10 4 0 5 -4 13 -10 16 -5
3 -10 2 -10 -4z"/>
<path d="M2580 2615 c-6 -8 -9 -19 -5 -24 8 -13 45 9 45 26 0 18 -25 16 -40
-2z"/>
<path d="M2620 2353 c0 -6 20 -35 45 -65 33 -40 45 -64 46 -89 0 -27 2 -30 8
-14 7 18 10 15 29 -21 22 -42 49 -71 58 -61 3 3 -3 18 -14 34 -10 15 -34 54
-53 85 -33 58 -119 152 -119 131z"/>
<path d="M2577 2343 c-117 -201 -142 -253 -119 -253 6 0 116 197 134 243 7 16
-6 25 -15 10z"/>
<path d="M2610 2290 c6 -11 7 -20 3 -20 -4 0 -1 -6 5 -12 10 -10 15 -10 22 2
11 18 -5 50 -26 50 -12 0 -12 -4 -4 -20z"/>
<path d="M2641 2188 c0 -28 2 -30 9 -13 12 28 12 45 0 45 -5 0 -10 -15 -9 -32z"/>
<path d="M2572 2160 c0 -14 2 -19 5 -12 2 6 2 18 0 25 -3 6 -5 1 -5 -13z"/>
<path d="M2587 2135 c-4 -24 -4 -53 -1 -62 10 -33 27 -63 35 -63 10 0 -2 43
-14 52 -10 6 -11 93 -1 109 3 5 1 9 -4 9 -5 0 -12 -20 -15 -45z"/>
<path d="M2666 2167 c3 -10 9 -15 12 -12 3 3 0 11 -7 18 -10 9 -11 8 -5 -6z"/>
<path d="M2633 2118 c3 -9 9 -33 13 -52 3 -20 10 -36 15 -36 12 0 -1 61 -19
85 -10 14 -13 15 -9 3z"/>
<path d="M2510 2100 c0 -5 7 -10 15 -10 8 0 15 5 15 10 0 6 -7 10 -15 10 -8 0
-15 -4 -15 -10z"/>
<path d="M2740 2080 c0 -5 4 -10 9 -10 6 0 13 5 16 10 3 6 -1 10 -9 10 -9 0
-16 -4 -16 -10z"/>
<path d="M2700 2071 c0 -6 5 -13 10 -16 6 -3 10 1 10 9 0 9 -4 16 -10 16 -5 0
-10 -4 -10 -9z"/>
<path d="M2490 2053 c0 -5 29 -40 63 -80 35 -39 69 -84 77 -100 8 -15 15 -29
16 -31 4 -8 34 12 34 23 0 8 30 53 66 100 36 48 63 89 60 92 -6 7 -44 -34
-103 -109 -24 -32 -45 -58 -47 -58 -1 0 -28 31 -60 69 -54 65 -106 111 -106
94z"/>
<path d="M2646 1954 c-4 -9 -4 -19 -1 -22 6 -6 35 18 35 29 0 16 -28 10 -34
-7z"/>
<path d="M2658 1701 c-10 -32 -34 -93 -53 -136 -42 -90 -43 -138 -2 -58 40 78
87 200 87 228 0 43 -14 28 -32 -34z"/>
<path d="M2713 1725 c2 -5 21 -39 42 -74 30 -51 38 -74 38 -110 -1 -43 -1 -44
6 -11 l6 35 25 -48 c25 -51 50 -79 50 -58 0 25 -97 195 -133 235 -21 22 -37
37 -34 31z"/>
<path d="M2697 1656 c-7 -19 0 -25 24 -19 11 3 18 11 16 17 -6 17 -34 19 -40
2z"/>
<path d="M2747 1604 c-4 -4 -6 -44 -5 -88 l2 -81 6 75 c4 41 8 66 9 55 1 -11
5 -15 7 -9 6 15 -10 57 -19 48z"/>
<path d="M2772 1505 c0 -16 2 -22 5 -12 2 9 2 23 0 30 -3 6 -5 -1 -5 -18z"/>
<path d="M2700 1493 c0 -22 2 -25 10 -13 13 20 13 40 0 40 -5 0 -10 -12 -10
-27z"/>
<path d="M2784 1467 c-2 -7 0 -24 5 -38 10 -24 10 -24 10 -1 1 23 15 30 26 12
9 -15 35 -12 35 4 0 21 -38 30 -57 14 -15 -11 -16 -11 -10 5 3 9 4 17 1 17 -2
0 -7 -6 -10 -13z"/>
<path d="M2610 1449 c0 -24 23 -21 28 4 2 10 -3 17 -12 17 -10 0 -16 -9 -16
-21z"/>
<path d="M2702 1425 c0 -16 2 -22 5 -12 2 9 2 23 0 30 -3 6 -5 -1 -5 -18z"/>
<path d="M2730 1411 c0 -11 5 -23 10 -26 6 -4 10 5 10 19 0 14 -4 26 -10 26
-5 0 -10 -9 -10 -19z"/>
<path d="M2822 1352 c-29 -44 -56 -83 -61 -87 -6 -3 -37 20 -71 52 -61 57
-119 103 -129 103 -3 0 36 -42 86 -92 91 -93 92 -93 77 -120 -16 -30 -5 -38
16 -13 7 8 19 15 26 15 8 0 14 8 14 19 0 10 15 41 33 67 44 64 69 113 65 126
-2 6 -27 -25 -56 -70z"/>
<path d="M2743 1353 c-7 -2 -13 -11 -13 -19 0 -11 8 -14 28 -12 16 2 27 9 27
18 0 15 -21 22 -42 13z"/>
<path d="M2734 1088 c5 -21 3 -28 -8 -28 -13 0 -26 -20 -26 -41 0 -5 9 -9 19
-9 13 0 21 8 23 23 2 16 16 -5 50 -75 26 -54 52 -98 58 -98 16 0 12 14 -26 87
-86 163 -101 185 -90 141z"/>
<path d="M2662 1056 c-58 -54 -140 -200 -119 -213 7 -4 34 -36 60 -70 50 -65
94 -106 107 -98 4 3 -28 42 -71 87 -60 64 -77 88 -73 103 11 36 66 127 111
182 24 29 41 53 38 53 -3 0 -27 -20 -53 -44z"/>
<path d="M2675 936 c3 -27 5 -74 5 -104 0 -30 2 -53 5 -50 11 10 7 153 -4 178
-10 21 -11 18 -6 -24z"/>
<path d="M2731 933 c0 -23 4 -45 9 -48 11 -7 11 16 0 60 -7 28 -8 28 -9 -12z"/>
<path d="M1240 953 c0 -5 11 -20 24 -32 35 -33 386 -148 355 -116 -3 2 -45 19
-95 36 -105 36 -254 98 -271 112 -8 6 -13 6 -13 0z"/>
<path d="M2651 894 c0 -11 3 -14 6 -6 3 7 2 16 -1 19 -3 4 -6 -2 -5 -13z"/>
<path d="M2590 865 c0 -8 9 -15 20 -15 11 0 20 7 20 15 0 8 -9 15 -20 15 -11
0 -20 -7 -20 -15z"/>
<path d="M2766 844 c-4 -15 -2 -32 3 -37 8 -8 11 0 11 26 0 44 -5 47 -14 11z"/>
<path d="M2795 860 c-4 -6 -3 -14 0 -20 9 -15 35 -12 35 4 0 17 -27 29 -35 16z"/>
<path d="M2818 798 c-39 -49 -98 -141 -98 -153 0 -17 41 31 91 106 57 87 61
115 7 47z"/>
<path d="M2710 818 c0 -7 5 -20 10 -28 8 -12 10 -11 10 7 0 12 -4 25 -10 28
-5 3 -10 0 -10 -7z"/>
<path d="M2720 740 c0 -11 6 -20 14 -20 9 0 12 7 9 20 -3 11 -9 20 -14 20 -5
0 -9 -9 -9 -20z"/>
</g>
</svg>
